<svg version="1" xmlns="http://www.w3.org/2000/svg" width="933.333" height="933.333" viewBox="0 0 700.000000 700.000000"><path d="M211.7 131.7c-.2.1-4.2.4-9.1.7-4.9.3-11.4 1-14.5 1.5-3.1.6-7.2 1.3-9.1 1.6-6.6 1-20.5 4.7-29 7.7-12.1 4.2-13.1 4.6-27 11.5-29.2 14.4-52.9 33.7-75.4 61.4-4.5 5.5-15.9 23.4-20.5 32.1-10 19-18.8 44.4-21.7 62.7-.3 1.8-.8 4.3-1 5.5-2.6 12.9-2.6 53.5 0 66.6.3 1.4 1 5.4 1.6 9 2.5 14.4 9.6 35.8 17 51.5 26.2 55.6 77.2 99.1 135.6 115.9 10.6 3.1 10.8 3.1 23.9 5.6 19.9 3.7 51.2 4.4 66.7 1.5 1.6-.3 4-.7 5.5-.9 10.2-1.4 14.4-2.4 28.8-6.7 91.5-27.6 154.7-112.1 154.9-207.4 0-11.9-.8-26.2-1.9-32.5-1.6-9.7-2.6-14.9-3.4-17.7-.7-2.2-.6-3.5.2-4.1.7-.6 7.5-4.2 15.2-8.2 28.6-14.8 45.2-23.4 51-26.5 3.3-1.8 11.5-6 18.2-9.4l12.2-6.1-2.9-7.7c-3.8-10.3-12.1-31.7-12.4-32.1-.2-.1-3.2.7-6.7 1.8-6.9 2.2-83.5 25.1-93.5 27.9-6 1.7-6 1.7-7.7-.5-.9-1.3-1.7-2.8-1.7-3.3 0-.6-.4-1.1-1-1.1-.5 0-1-.5-1-1.1 0-4.1-23.9-31.9-38.5-44.9-15.7-14-40.2-29.4-58.5-36.9-3-1.2-6.4-2.6-7.5-3.1-7.3-3.4-31.8-9.9-42.8-11.5-2.7-.3-5.8-.8-7-1.1-5.7-1.1-36.2-2.5-37-1.7zm32.3 15.7c1.4.3 7 1.2 12.5 2.2 5.5.9 11 2 12.3 2.5 1.3.5 3.5 1.1 5.1 1.4 7.4 1.3 25.7 8.2 38.1 14.5 53.2 26.8 93 77 106.5 134.5 1.3 5.5 2.6 12.2 3 15 .3 2.7 1 7.7 1.5 11 .9 6.1.6 43.2-.3 47.2-.3 1.1-.9 4.3-1.3 7-1 6.9-.9 6.8-3.8 18.1-12.9 51.1-46.9 96.5-92.7 124-21.4 12.9-46.4 21.9-73.4 26.7-11.4 2-38.3 2.6-53.5 1.2-4.6-.5-8.7-1-9-1.2-.3-.2-2.3-.6-4.5-.9-10.1-1.5-33.4-8.1-39.1-11.1-1.6-.8-3.3-1.5-3.7-1.5-1.3 0-17.5-8.2-25.2-12.7-19.6-11.5-40.3-29.4-54.7-47.3-40.2-50.1-54.2-113-39.3-177 6.2-26.7 20.8-56.2 39.2-79 34.1-42.3 84.1-69.4 137.8-74.7 3.3-.3 6.1-.7 6.3-.8.6-.5 35.5.3 38.2.9z"/><path d="M142.7 226.6c-.1.1-3.8.4-8.3.7-4.4.2-8.9.9-10 1.5-1 .5-3.6 1.8-5.7 2.8-5.1 2.5-12.7 9.9-15.9 15.4-5.3 9.1-5.7 12.3-5.8 47.8 0 36.8.4 40.2 6.6 49.9 4.7 7.4 9.4 11.6 17.4 15.6l6.5 3.2 86.5.2c47.6.2 88.3.5 90.6.8 2.9.4 5.1 1.6 7.5 4.1l3.4 3.5.1 31.4c.1 34.5 0 35.5-6 39.8l-3.1 2.2h-86c-81.2-.1-86.2-.2-89-1.9-4.7-2.8-6.5-6.8-6.5-14.4v-6.7l-12.8.1c-7 .1-13.3.2-14 .3-1.9.2-1.3 14.2.9 21.7 4 13.1 15.2 23.7 28.8 27.4 3.1.8 28.5 1.1 93 1.1 80.6.1 89-.1 93.6-1.6 7.3-2.5 12.7-6 17.8-11.4 5.5-5.8 8.3-11.1 10-18.8 1.8-7.8 1.6-68.8-.2-75.1-3.9-14-16.6-26.1-30.6-29.2-3.1-.7-34.3-1.1-89.9-1.1-62-.1-86-.4-88.6-1.2-2-.7-4.4-2.6-5.8-4.7l-2.3-3.4.3-32.3.3-32.3 3.1-3.1c1.8-1.8 4.7-3.4 7-3.8 2.1-.5 41.3-.8 86.9-.7l83 .1 3.5 2.2c4.8 3 6.1 5.5 6.6 13 .2 3.6.6 6.8.8 7.2.3.5 20.9.7 26.2.2 1.7-.1.8-16.6-1.1-22.1-5-14.1-17.9-25.4-31.5-27.6-3.2-.5-166.7-1.3-167.3-.8zM672 142.9l-1.1 4.9-12.2 4.5C652 154.8 631 162.7 612 170c-19 7.2-45.1 17.1-58 22-12.9 4.8-24.3 9.1-25.2 9.5-1 .4-1.8 1.2-1.8 1.8 0 1.9 14.5 38.7 15.2 38.7.5 0 33.3-12.2 72.9-27.1l72.2-27.2 4.4 2.2c2.4 1.1 4.7 2.1 5.2 2.1 1.3 0 1.2-20.2-.3-26.2-.7-3.3-3-8.2-5.2-11.4-3.9-5.6-15.2-16.4-17.2-16.4-.5 0-1.5 2.2-2.2 4.9z"/></svg>